<svg width="48" height="31" viewBox="0 0 48 31" fill="none" xmlns="http://www.w3.org/2000/svg">
<g clip-path="url(#clip0_19_102)">
<path opacity="0.07" d="M44.2105 -0.125H3.78947C1.64211 -0.125 0 1.5 0 3.625V26.125C0 28.25 1.76842 29.875 3.78947 29.875H44.2105C46.3579 29.875 48 28.25 48 26.125V3.625C48 1.5 46.2316 -0.125 44.2105 -0.125Z" fill="black"/>
<path d="M44.2106 1.125C45.6 1.125 46.7369 2.25 46.7369 3.625V26.125C46.7369 27.5 45.6 28.625 44.2106 28.625H3.7895C2.40003 28.625 1.26318 27.5 1.26318 26.125V3.625C1.26318 2.25 2.40003 1.125 3.7895 1.125H44.2106Z" fill="white"/>
<path d="M36.0137 11.9502H35.6427C35.148 13.2002 34.7771 13.8252 34.4061 15.7002H36.7557C36.3847 13.8252 36.3847 12.9502 36.0137 11.9502ZM39.6 19.3252H37.4977C37.374 19.3252 37.374 19.3252 37.2503 19.2002L37.003 18.0752L36.8793 17.8252H33.9114C33.7877 17.8252 33.6641 17.8252 33.6641 18.0752L33.2931 19.2002C33.2931 19.3252 33.1694 19.3252 33.1694 19.3252H30.5725L30.8198 18.7002L34.4061 10.2002C34.4061 9.5752 34.7771 9.3252 35.3954 9.3252H37.2503C37.374 9.3252 37.4977 9.3252 37.4977 9.5752L39.229 17.7002C39.3526 18.2002 39.4763 18.5752 39.4763 19.0752C39.6 19.2002 39.6 19.2002 39.6 19.3252ZM23.029 18.9502L23.5236 16.7002C23.6473 16.7002 23.7709 16.8252 23.7709 16.8252C24.6366 17.2002 25.5022 17.4502 26.3679 17.3252C26.6152 17.3252 26.9862 17.2002 27.2335 17.0752C27.8519 16.8252 27.8519 16.2002 27.3572 15.7002C27.1099 15.4502 26.7389 15.3252 26.3679 15.0752C25.8732 14.8252 25.3786 14.5752 25.0076 14.2002C23.5236 12.9502 24.0183 11.2002 24.8839 10.3252C25.6259 9.8252 25.9969 9.3252 26.9862 9.3252C28.4702 9.3252 30.0778 9.3252 30.8198 9.5752H30.9435C30.8198 10.3252 30.6961 10.9502 30.4488 11.7002C29.8305 11.4502 29.2122 11.2002 28.5938 11.2002C28.2229 11.2002 27.8519 11.2002 27.4809 11.3252C27.2335 11.3252 27.1099 11.4502 26.9862 11.5752C26.7389 11.8252 26.7389 12.2002 26.9862 12.4502L27.6045 12.9502C28.0992 13.2002 28.5938 13.4502 28.9648 13.7002C29.5832 14.0752 30.2015 14.7002 30.3251 15.4502C30.5725 16.5752 30.2015 17.5752 29.2122 18.3252C28.5938 18.8252 28.3465 19.0752 27.4809 19.0752C25.7496 19.0752 24.3893 19.2002 23.2763 18.8252C23.1526 19.0752 23.1526 19.0752 23.029 18.9502ZM18.7007 19.3252C18.8244 18.4502 18.8244 18.4502 18.948 18.0752C19.5664 15.3252 20.1847 12.4502 20.6793 9.7002C20.803 9.4502 20.803 9.3252 21.0503 9.3252H23.2763C23.029 10.8252 22.7816 11.9502 22.4106 13.3252C22.0396 15.2002 21.6687 17.0752 21.174 18.9502C21.174 19.2002 21.0503 19.2002 20.803 19.2002M7.19995 9.5752C7.19995 9.4502 7.44728 9.3252 7.57094 9.3252H11.7755C12.3938 9.3252 12.8885 9.7002 13.0122 10.3252L14.1251 15.8252C14.1251 15.9502 14.1251 15.9502 14.2488 16.0752C14.2488 15.9502 14.3725 15.9502 14.3725 15.9502L16.9694 9.5752C16.8458 9.4502 16.9694 9.3252 17.0931 9.3252H19.69C19.69 9.4502 19.69 9.4502 19.5664 9.5752L15.7328 18.7002C15.6091 18.9502 15.6091 19.0752 15.4854 19.2002C15.3618 19.3252 15.1145 19.2002 14.8671 19.2002H13.0122C12.8885 19.2002 12.7648 19.2002 12.7648 18.9502L10.7862 11.2002C10.5389 10.9502 10.1679 10.5752 9.67323 10.4502C8.93125 10.0752 7.57094 9.82519 7.32362 9.82519L7.19995 9.5752Z" fill="#142688"/>
</g>
<defs>
<clipPath id="clip0_19_102">
<rect width="48" height="30" fill="white" transform="translate(0 0.625)"/>
</clipPath>
</defs>
</svg>
