<svg width="48" height="31" viewBox="0 0 48 31" fill="none" xmlns="http://www.w3.org/2000/svg">
<g clip-path="url(#clip0_19_119)">
<path d="M43.579 0.5H4.42107C2.3282 0.5 0.631592 2.17893 0.631592 4.25V25.5C0.631592 27.5711 2.3282 29.25 4.42107 29.25H43.579C45.6718 29.25 47.3684 27.5711 47.3684 25.5V4.25C47.3684 2.17893 45.6718 0.5 43.579 0.5Z" fill="white" stroke="black" stroke-opacity="0.07"/>
<path d="M17.6014 15.8512V18.9712C17.6162 19.2312 17.5334 19.4873 17.3691 19.6894C17.2048 19.8914 16.9709 20.0247 16.7134 20.0632H13.4734C13.1611 20.0927 12.8462 20.0548 12.5498 19.9523C12.2533 19.8498 11.9823 19.685 11.7549 19.469C11.5275 19.253 11.349 18.9908 11.2315 18.7C11.1139 18.4092 11.06 18.0966 11.0734 17.7832C11.0382 16.9506 11.0623 16.1165 11.1454 15.2872C11.2192 14.7929 11.4612 14.3391 11.8307 14.0025C12.2001 13.6658 12.6743 13.4669 13.1734 13.4392H14.6014C14.6651 13.4492 14.7302 13.4424 14.7905 13.4196C14.8507 13.3968 14.9041 13.3588 14.9452 13.3092C14.9863 13.2596 15.0139 13.2001 15.0251 13.1367C15.0364 13.0732 15.031 13.008 15.0094 12.9472C15.024 12.8968 15.0284 12.844 15.0224 12.7918C15.0164 12.7397 15 12.6893 14.9744 12.6435C14.9487 12.5977 14.9141 12.5575 14.8728 12.5252C14.8314 12.4928 14.784 12.4691 14.7334 12.4552H12.5974C12.1414 12.4552 12.0454 12.3592 12.0454 11.8912V10.5592C12.0368 10.5119 12.0378 10.4633 12.0484 10.4163C12.0589 10.3694 12.0787 10.325 12.1067 10.2859C12.1347 10.2467 12.1702 10.2136 12.2112 10.1884C12.2522 10.1632 12.2978 10.1465 12.3454 10.1392H15.2134C15.5378 10.1281 15.8608 10.1874 16.16 10.3132C16.4593 10.439 16.7277 10.6282 16.9467 10.8677C17.1658 11.1073 17.3302 11.3915 17.4287 11.7008C17.5273 12.0101 17.5575 12.3371 17.5174 12.6592C17.6134 13.7512 17.6014 14.8072 17.6014 15.8512ZM13.6174 17.4592C13.6107 17.5656 13.6459 17.6703 13.7154 17.751C13.7849 17.8317 13.8833 17.882 13.9894 17.8912H14.7214C14.7784 17.8966 14.8359 17.8895 14.89 17.8704C14.944 17.8513 14.9932 17.8208 15.0343 17.7809C15.0753 17.741 15.1073 17.6926 15.1278 17.6391C15.1484 17.5857 15.1571 17.5284 15.1534 17.4712V16.1152C15.1534 15.7552 14.9614 15.6832 14.2894 15.6832C13.6174 15.6832 13.6534 15.8032 13.6174 16.1272V17.4592ZM25.1134 14.1832V17.5552C25.1379 17.8706 25.0999 18.1877 25.0015 18.4883C24.903 18.7889 24.7462 19.0671 24.5399 19.3068C24.3335 19.5466 24.0819 19.7432 23.7993 19.8854C23.5168 20.0276 23.2089 20.1125 22.8934 20.1352H19.9534C19.5454 20.1352 19.4494 20.0512 19.4494 19.6312V18.1192C19.4408 18.0682 19.4432 18.0159 19.4566 17.9659C19.4701 17.9159 19.4941 17.8693 19.5271 17.8295C19.5602 17.7896 19.6014 17.7573 19.6481 17.7349C19.6947 17.7124 19.7456 17.7002 19.7974 17.6992H22.1974C22.2538 17.7065 22.3111 17.7011 22.3651 17.6835C22.4192 17.6659 22.4687 17.6366 22.51 17.5975C22.5514 17.5585 22.5835 17.5108 22.6041 17.4578C22.6248 17.4048 22.6334 17.3479 22.6294 17.2912C22.6326 17.2392 22.6256 17.1871 22.6086 17.1378C22.5917 17.0885 22.5652 17.043 22.5306 17.004C22.496 16.965 22.4541 16.9332 22.4072 16.9104C22.3604 16.8876 22.3094 16.8743 22.2574 16.8712H21.0574C20.4439 16.8907 19.8475 16.6671 19.3981 16.2491C18.9486 15.8311 18.6824 15.2525 18.6574 14.6392V10.6672C18.64 10.567 18.663 10.4639 18.7215 10.3807C18.78 10.2974 18.8692 10.2408 18.9694 10.2232H20.5774C20.9854 10.2232 21.0814 10.3432 21.0814 10.7632V13.8832C21.0814 14.4232 21.2014 14.5312 21.7414 14.5312H21.8014C22.5454 14.5312 22.6054 14.4712 22.6054 13.7392V10.6672C22.5655 10.5893 22.5502 10.5012 22.5615 10.4144C22.5728 10.3276 22.6102 10.2463 22.6688 10.1813C22.7273 10.1162 22.8042 10.0705 22.8894 10.0501C22.9745 10.0298 23.0638 10.0357 23.1454 10.0672H24.5974C24.6664 10.0543 24.7375 10.0585 24.8045 10.0792C24.8716 10.1 24.9326 10.1368 24.9822 10.1864C25.0319 10.236 25.0686 10.297 25.0894 10.3641C25.1102 10.4311 25.1143 10.5022 25.1014 10.5712C25.1134 11.8672 25.1134 12.9952 25.1134 14.1832ZM6.0814 17.2432V19.5712C6.0814 20.1232 6.0094 20.1832 5.4574 20.1832H4.0414C3.98186 20.197 3.91978 20.1955 3.86102 20.1786C3.80227 20.1618 3.74876 20.1303 3.70554 20.0871C3.66232 20.0439 3.63082 19.9904 3.614 19.9316C3.59718 19.8728 3.5956 19.8108 3.6094 19.7512V10.6672C3.59521 10.5815 3.61479 10.4936 3.66401 10.422C3.71324 10.3504 3.78828 10.3007 3.8734 10.2832H8.0374C8.54713 10.2953 9.03283 10.5023 9.39447 10.8618C9.75612 11.2212 9.96618 11.7056 9.9814 12.2152C10.0519 13.21 10.0519 14.2085 9.9814 15.2032C9.98141 15.7549 9.76307 16.2842 9.37409 16.6754C8.9851 17.0667 8.45709 17.2881 7.9054 17.2912H6.0814V17.2432ZM6.0814 14.7472H7.1134C7.2132 14.7473 7.30909 14.7085 7.38077 14.639C7.45245 14.5696 7.49428 14.475 7.4974 14.3752V13.0672C7.50755 12.9672 7.47804 12.8671 7.41521 12.7886C7.35238 12.71 7.26125 12.6593 7.1614 12.6472H6.1054V14.7352L6.0814 14.7472Z" fill="#22346C"/>
<path d="M35.3254 10.6674C35.8178 10.2748 36.4343 10.0711 37.0636 10.0931C37.6929 10.1151 38.2937 10.3614 38.7574 10.7874C39.1989 10.544 39.6606 10.3392 40.1374 10.1754C40.5017 10.089 40.8807 10.0856 41.2464 10.1656C41.6122 10.2455 41.9552 10.4066 42.2502 10.6371C42.5452 10.8676 42.7846 11.1615 42.9507 11.497C43.1167 11.8325 43.2051 12.2011 43.2094 12.5754V19.5714C43.2094 20.0034 43.1014 20.1114 42.6694 20.1114H41.2894C41.22 20.1275 41.1475 20.1257 41.079 20.1061C41.0104 20.0864 40.948 20.0497 40.8976 19.9993C40.8472 19.9488 40.8104 19.8864 40.7908 19.8179C40.7712 19.7493 40.7693 19.6769 40.7854 19.6074V13.3194C40.8001 13.1984 40.7838 13.0756 40.7381 12.9625C40.6924 12.8495 40.6187 12.7499 40.5239 12.6731C40.4291 12.5964 40.3165 12.5449 40.1964 12.5236C40.0763 12.5024 39.9528 12.5119 39.8374 12.5514C39.6687 12.5696 39.5135 12.6521 39.4041 12.7817C39.2946 12.9113 39.2392 13.0781 39.2494 13.2474V19.7274C39.2669 19.8245 39.2451 19.9245 39.1889 20.0055C39.1326 20.0865 39.0465 20.1419 38.9494 20.1594H37.2334C37.1804 20.1685 37.1259 20.1655 37.0742 20.1507C37.0224 20.1359 36.9746 20.1097 36.9343 20.074C36.894 20.0383 36.8622 19.9941 36.8413 19.9445C36.8204 19.8949 36.8109 19.8412 36.8134 19.7874V13.2714C36.8432 13.138 36.8245 12.9984 36.7607 12.8775C36.697 12.7566 36.5923 12.6623 36.4654 12.6114C36.1863 12.5371 35.8926 12.5371 35.6134 12.6114C35.498 12.6675 35.4046 12.7606 35.3481 12.8758C35.2916 12.991 35.2751 13.1218 35.3014 13.2474V19.4994C35.3014 20.0754 35.2294 20.1594 34.6294 20.1594H33.4294C32.9974 20.1594 32.9254 20.0634 32.9254 19.6314V10.6674C32.9254 10.1634 32.9974 10.1034 33.4774 10.1034H34.7854C34.8599 10.0975 34.9348 10.1083 35.0047 10.1349C35.0745 10.1615 35.1376 10.2033 35.1892 10.2573C35.2409 10.3113 35.28 10.3761 35.3035 10.447C35.3271 10.518 35.3346 10.5932 35.3254 10.6674V10.6674ZM28.8094 12.6354H27.8854C27.8183 12.6546 27.7474 12.6556 27.6798 12.6385C27.6121 12.6214 27.5502 12.5868 27.5003 12.5381C27.4503 12.4893 27.4141 12.4283 27.3954 12.3611C27.3766 12.2939 27.3759 12.223 27.3934 12.1554V10.6674C27.3759 10.5704 27.3977 10.4703 27.454 10.3893C27.5102 10.3083 27.5964 10.253 27.6934 10.2354H27.8134C28.2363 10.2371 28.6522 10.127 29.0188 9.91628C29.3855 9.70555 29.69 9.40167 29.9014 9.03542C30.0841 8.76217 30.321 8.52935 30.5974 8.35142C30.8854 8.15942 31.1014 8.35142 31.1254 8.67542V10.1994H31.9654C32.0344 10.1865 32.1055 10.1906 32.1726 10.2114C32.2396 10.2322 32.3006 10.269 32.3502 10.3186C32.3999 10.3682 32.4367 10.4292 32.4574 10.4963C32.4782 10.5633 32.4823 10.6344 32.4694 10.7034V12.1674C32.4855 12.2369 32.4837 12.3093 32.4641 12.3779C32.4444 12.4464 32.4077 12.5088 32.3573 12.5593C32.3068 12.6097 32.2444 12.6464 32.1759 12.6661C32.1073 12.6857 32.0349 12.6875 31.9654 12.6714H31.1734V19.6674C31.1734 20.1714 31.0894 20.2434 30.6094 20.2554H29.3014C29.2315 20.2753 29.1576 20.2761 29.0873 20.2578C29.0169 20.2396 28.9528 20.2028 28.9014 20.1515C28.85 20.1001 28.8133 20.0359 28.795 19.9656C28.7767 19.8953 28.7776 19.8213 28.7974 19.7514C28.8094 17.5074 28.8094 12.8154 28.8094 12.6474V12.6354Z" fill="#24B8EB"/>
</g>
<defs>
<clipPath id="clip0_19_119">
<rect width="48" height="30" fill="white" transform="translate(0 0.625)"/>
</clipPath>
</defs>
</svg>
