<svg width="48" height="30" viewBox="0 0 48 30" fill="none" xmlns="http://www.w3.org/2000/svg">
<path d="M43.579 0.5H4.42107C2.3282 0.5 0.631592 2.17893 0.631592 4.25V25.5C0.631592 27.5711 2.3282 29.25 4.42107 29.25H43.579C45.6718 29.25 47.3684 27.5711 47.3684 25.5V4.25C47.3684 2.17893 45.6718 0.5 43.579 0.5Z" fill="white" stroke="black" stroke-opacity="0.07"/>
<path fill-rule="evenodd" clip-rule="evenodd" d="M40.4211 19.5875L42.9474 10.325L45.4737 15.1L40.4211 19.5875Z" fill="#097A44"/>
<path fill-rule="evenodd" clip-rule="evenodd" d="M38.8547 19.6125L41.381 10.3625L43.9074 15.1375L38.8547 19.6125Z" fill="#F46F20"/>
<path fill-rule="evenodd" clip-rule="evenodd" d="M26.1095 10.125C25.8507 9.87571 25.5409 9.68424 25.201 9.56349C24.861 9.44273 24.4989 9.39551 24.139 9.425H20.3495L17.8863 17.9375H20.0969L20.9305 15.05H22.4842C23.329 15.0799 24.1638 14.8625 24.8842 14.425C25.6023 13.9006 26.1048 13.137 26.299 12.275C26.4555 11.9304 26.5203 11.5519 26.4871 11.1756C26.4539 10.7992 26.3239 10.4375 26.1095 10.125ZM22.0548 11.3H23.4695C23.7169 11.2709 23.966 11.3382 24.1642 11.4875C24.3032 11.625 24.2527 11.925 24.1642 12.15C24.093 12.459 23.9141 12.7334 23.659 12.925C23.3972 13.0962 23.0884 13.1835 22.7748 13.175H21.4737L22.0548 11.3ZM11.5453 11.125C11.5127 10.8568 11.4268 10.5977 11.2927 10.3625C11.1233 10.0722 10.8674 9.84077 10.56 9.7C10.1251 9.53527 9.66119 9.45875 9.19581 9.475H5.05265L2.52634 17.9125H4.7116L5.62107 14.7625H7.20002C7.7937 14.7625 7.93265 14.8875 7.95792 14.925C7.98318 14.9625 8.0716 15.1125 7.95792 15.7375L7.75581 16.4875C7.68729 16.7287 7.64079 16.9755 7.61686 17.225V17.9125H9.87792L10.0295 17.375L9.89055 17.275C9.89055 17.275 9.80213 17.2125 9.81476 17.025C9.84886 16.7875 9.90318 16.5537 9.97897 16.325L10.1053 15.8C10.2705 15.3567 10.3141 14.8779 10.2316 14.4125C10.1729 14.2146 10.059 14.037 9.90318 13.9C10.236 13.74 10.5292 13.5095 10.7621 13.225C11.0692 12.858 11.2971 12.4325 11.4316 11.975C11.52 11.7 11.5592 11.4125 11.5453 11.125ZM9.19581 12.1625C9.15978 12.3288 9.08348 12.4839 8.97346 12.6146C8.86345 12.7452 8.72301 12.8474 8.56423 12.9125C8.30389 12.9982 8.02995 13.0363 7.75581 13.025H6.13897L6.61897 11.3625H8.42528C8.65441 11.3446 8.88444 11.3833 9.09476 11.475C9.15792 11.475 9.36002 11.5625 9.19581 12.1V12.1625ZM15.3853 14.875C15.3094 15.1739 15.1811 15.4574 15.0063 15.7125C14.8843 15.887 14.7194 16.028 14.5272 16.122C14.3349 16.216 14.1216 16.2601 13.9074 16.25C13.4779 16.25 13.4527 16.075 13.4274 16C13.4097 15.7796 13.4398 15.5579 13.5158 15.35L14.64 11.4625H12.5053L11.419 15.2125C11.232 15.7416 11.1673 16.3054 11.2295 16.8625C11.3305 17.3875 11.7348 18 13.0105 18C13.3225 18.005 13.6333 17.9625 13.9327 17.875C14.2004 17.788 14.4553 17.6661 14.6905 17.5125L14.5895 17.8875H16.6358L18.4927 11.475H16.4211L15.3853 14.875ZM31.7179 16.25L32.5137 13.525C32.8169 12.4875 32.4253 12.0125 32.0463 11.7875C31.5155 11.5036 30.9191 11.3614 30.3158 11.375C29.3951 11.3302 28.4918 11.6341 27.7895 12.225C27.3922 12.6079 27.0934 13.0794 26.9179 13.6L26.8042 13.925H28.8379V13.7875C28.9116 13.6144 29.0189 13.4573 29.1537 13.325C29.3561 13.1725 29.6072 13.0971 29.8611 13.1125C30.0603 13.0941 30.2609 13.1286 30.4421 13.2125V13.4375C30.4421 13.5125 30.4421 13.625 30.1263 13.725C29.9298 13.7896 29.7263 13.8316 29.52 13.85L28.9642 13.9125C28.4195 13.9604 27.8863 14.0955 27.3853 14.3125C26.6653 14.6512 26.1348 15.2875 25.9327 16.05C25.8323 16.3009 25.7994 16.5732 25.837 16.8405C25.8747 17.1077 25.9816 17.3608 26.1474 17.575C26.5124 17.9587 27.0316 18.16 27.5621 18.125C28.0309 18.1243 28.4932 18.0174 28.9137 17.8125L29.419 17.525V17.9375H31.579L31.7432 17.3375L31.579 17.25C31.5621 17.1591 31.5621 17.0659 31.579 16.975C31.579 16.6625 31.6674 16.4375 31.7179 16.25ZM28.0295 16.125C28.0598 16.0156 28.1139 15.9142 28.1881 15.8278C28.2623 15.7414 28.3548 15.6722 28.459 15.625C28.6892 15.5304 28.9315 15.4673 29.179 15.4375L29.5453 15.375L29.9242 15.2875V15.375C29.8368 15.7568 29.6067 16.0917 29.28 16.3125C29.0056 16.478 28.6918 16.5685 28.3705 16.575C28.3138 16.5799 28.2567 16.5735 28.2025 16.5564C28.1483 16.5392 28.0981 16.5115 28.0548 16.475C28.0159 16.3625 28.0072 16.2419 28.0295 16.125ZM38.0211 11.525L35.8863 15.275V11.525H33.6127L34.1053 17.9375L33.9537 18.175C33.8806 18.2985 33.7815 18.4051 33.6632 18.4875C33.5699 18.5405 33.4668 18.5745 33.36 18.5875H32.5011L32.0084 20.3H33.0569C33.6332 20.3471 34.2083 20.197 34.6863 19.875C35.2999 19.2239 35.838 18.507 36.2906 17.7375L40.2948 11.4875L38.0211 11.525Z" fill="#302F82"/>
</svg>
