<svg width="48" height="31" viewBox="0 0 48 31" fill="none" xmlns="http://www.w3.org/2000/svg">
<g clip-path="url(#clip0_19_106)">
<path opacity="0.07" d="M44.2105 -0.125H3.78947C1.64211 -0.125 0 1.5 0 3.625V26.125C0 28.25 1.76842 29.875 3.78947 29.875H44.2105C46.3579 29.875 48 28.25 48 26.125V3.625C48 1.5 46.2316 -0.125 44.2105 -0.125Z" fill="black"/>
<path d="M44.2106 1.125C45.6 1.125 46.7369 2.25 46.7369 3.625V26.125C46.7369 27.5 45.6 28.625 44.2106 28.625H3.7895C2.40003 28.625 1.26318 27.5 1.26318 26.125V3.625C1.26318 2.25 2.40003 1.125 3.7895 1.125H44.2106Z" fill="white"/>
<path d="M18.9422 23.2251C23.8256 23.2251 27.7843 19.3076 27.7843 14.4751C27.7843 9.64261 23.8256 5.7251 18.9422 5.7251C14.0588 5.7251 10.1001 9.64261 10.1001 14.4751C10.1001 19.3076 14.0588 23.2251 18.9422 23.2251Z" fill="#EB001B"/>
<path d="M29.0475 23.2251C33.9308 23.2251 37.8896 19.3076 37.8896 14.4751C37.8896 9.64261 33.9308 5.7251 29.0475 5.7251C24.1641 5.7251 20.2054 9.64261 20.2054 14.4751C20.2054 19.3076 24.1641 23.2251 29.0475 23.2251Z" fill="#F79E1B"/>
<path d="M27.7843 14.4752C27.7843 11.4752 26.2685 8.85019 23.9949 7.35019C21.7212 8.97519 20.2054 11.6002 20.2054 14.4752C20.2054 17.3502 21.7212 20.1002 23.9949 21.6002C26.2685 20.1002 27.7843 17.4752 27.7843 14.4752Z" fill="#FF5F00"/>
</g>
<defs>
<clipPath id="clip0_19_106">
<rect width="48" height="30" fill="white" transform="translate(0 0.625)"/>
</clipPath>
</defs>
</svg>
